<mxfile host="app.diagrams.net" agent="Mozilla/5.0 (Windows NT 10.0; Win64; x64) AppleWebKit/537.36 (KHTML, like Gecko) Chrome/133.0.0.0 Safari/537.36" version="26.0.16">
  <diagram name="PÃ¡gina-1" id="tBjmyK12NmJflS2ffr5i">
    <mxGraphModel dx="1214" dy="604" grid="1" gridSize="10" guides="1" tooltips="1" connect="1" arrows="1" fold="1" page="1" pageScale="1" pageWidth="827" pageHeight="1169" math="0" shadow="0">
      <root>
        <mxCell id="0" />
        <mxCell id="1" parent="0" />
        <mxCell id="0ETliMTYzgSCyh8lm8P4-6" style="edgeStyle=orthogonalEdgeStyle;rounded=0;orthogonalLoop=1;jettySize=auto;html=1;exitX=1;exitY=0.5;exitDx=0;exitDy=0;entryX=0.5;entryY=1;entryDx=0;entryDy=0;" parent="1" source="0ETliMTYzgSCyh8lm8P4-1" target="0ETliMTYzgSCyh8lm8P4-2" edge="1">
          <mxGeometry relative="1" as="geometry" />
        </mxCell>
        <mxCell id="0ETliMTYzgSCyh8lm8P4-35" style="edgeStyle=orthogonalEdgeStyle;rounded=0;orthogonalLoop=1;jettySize=auto;html=1;exitX=0.5;exitY=1;exitDx=0;exitDy=0;entryX=0.5;entryY=0;entryDx=0;entryDy=0;" parent="1" source="0ETliMTYzgSCyh8lm8P4-1" target="0ETliMTYzgSCyh8lm8P4-16" edge="1">
          <mxGeometry relative="1" as="geometry" />
        </mxCell>
        <mxCell id="0ETliMTYzgSCyh8lm8P4-36" style="edgeStyle=orthogonalEdgeStyle;rounded=0;orthogonalLoop=1;jettySize=auto;html=1;exitX=0.25;exitY=1;exitDx=0;exitDy=0;entryX=0.5;entryY=0;entryDx=0;entryDy=0;" parent="1" source="0ETliMTYzgSCyh8lm8P4-1" target="0ETliMTYzgSCyh8lm8P4-15" edge="1">
          <mxGeometry relative="1" as="geometry" />
        </mxCell>
        <mxCell id="0ETliMTYzgSCyh8lm8P4-37" style="edgeStyle=orthogonalEdgeStyle;rounded=0;orthogonalLoop=1;jettySize=auto;html=1;exitX=0.75;exitY=1;exitDx=0;exitDy=0;entryX=0.5;entryY=0;entryDx=0;entryDy=0;" parent="1" source="0ETliMTYzgSCyh8lm8P4-1" target="0ETliMTYzgSCyh8lm8P4-17" edge="1">
          <mxGeometry relative="1" as="geometry" />
        </mxCell>
        <mxCell id="0ETliMTYzgSCyh8lm8P4-1" value="Marca" style="rounded=0;whiteSpace=wrap;html=1;" parent="1" vertex="1">
          <mxGeometry x="358" y="374" width="120" height="60" as="geometry" />
        </mxCell>
        <mxCell id="0ETliMTYzgSCyh8lm8P4-28" style="edgeStyle=orthogonalEdgeStyle;rounded=0;orthogonalLoop=1;jettySize=auto;html=1;exitX=1;exitY=0.5;exitDx=0;exitDy=0;" parent="1" source="0ETliMTYzgSCyh8lm8P4-2" target="0ETliMTYzgSCyh8lm8P4-13" edge="1">
          <mxGeometry relative="1" as="geometry" />
        </mxCell>
        <mxCell id="0ETliMTYzgSCyh8lm8P4-29" style="edgeStyle=orthogonalEdgeStyle;rounded=0;orthogonalLoop=1;jettySize=auto;html=1;exitX=1;exitY=0.25;exitDx=0;exitDy=0;entryX=0;entryY=0.5;entryDx=0;entryDy=0;" parent="1" source="0ETliMTYzgSCyh8lm8P4-2" target="0ETliMTYzgSCyh8lm8P4-12" edge="1">
          <mxGeometry relative="1" as="geometry" />
        </mxCell>
        <mxCell id="0ETliMTYzgSCyh8lm8P4-30" style="edgeStyle=orthogonalEdgeStyle;rounded=0;orthogonalLoop=1;jettySize=auto;html=1;exitX=1;exitY=0;exitDx=0;exitDy=0;entryX=0;entryY=0.5;entryDx=0;entryDy=0;" parent="1" source="0ETliMTYzgSCyh8lm8P4-2" target="0ETliMTYzgSCyh8lm8P4-11" edge="1">
          <mxGeometry relative="1" as="geometry">
            <Array as="points">
              <mxPoint x="578" y="140" />
              <mxPoint x="628" y="140" />
            </Array>
          </mxGeometry>
        </mxCell>
        <mxCell id="0ETliMTYzgSCyh8lm8P4-31" style="edgeStyle=orthogonalEdgeStyle;rounded=0;orthogonalLoop=1;jettySize=auto;html=1;exitX=0.75;exitY=0;exitDx=0;exitDy=0;entryX=0;entryY=1;entryDx=0;entryDy=0;" parent="1" source="0ETliMTYzgSCyh8lm8P4-2" target="0ETliMTYzgSCyh8lm8P4-21" edge="1">
          <mxGeometry relative="1" as="geometry" />
        </mxCell>
        <mxCell id="0ETliMTYzgSCyh8lm8P4-32" style="edgeStyle=orthogonalEdgeStyle;rounded=0;orthogonalLoop=1;jettySize=auto;html=1;exitX=1;exitY=0.75;exitDx=0;exitDy=0;entryX=0;entryY=0.5;entryDx=0;entryDy=0;" parent="1" source="0ETliMTYzgSCyh8lm8P4-2" target="0ETliMTYzgSCyh8lm8P4-14" edge="1">
          <mxGeometry relative="1" as="geometry" />
        </mxCell>
        <mxCell id="0ETliMTYzgSCyh8lm8P4-33" style="edgeStyle=orthogonalEdgeStyle;rounded=0;orthogonalLoop=1;jettySize=auto;html=1;exitX=1;exitY=1;exitDx=0;exitDy=0;entryX=0;entryY=0.5;entryDx=0;entryDy=0;" parent="1" source="0ETliMTYzgSCyh8lm8P4-2" target="0ETliMTYzgSCyh8lm8P4-20" edge="1">
          <mxGeometry relative="1" as="geometry" />
        </mxCell>
        <mxCell id="0ETliMTYzgSCyh8lm8P4-34" style="edgeStyle=orthogonalEdgeStyle;rounded=0;orthogonalLoop=1;jettySize=auto;html=1;exitX=0.75;exitY=1;exitDx=0;exitDy=0;entryX=0;entryY=0.5;entryDx=0;entryDy=0;" parent="1" source="0ETliMTYzgSCyh8lm8P4-2" target="0ETliMTYzgSCyh8lm8P4-22" edge="1">
          <mxGeometry relative="1" as="geometry" />
        </mxCell>
        <mxCell id="0ETliMTYzgSCyh8lm8P4-2" value="Modelo celular" style="rounded=0;whiteSpace=wrap;html=1;" parent="1" vertex="1">
          <mxGeometry x="458" y="224" width="120" height="60" as="geometry" />
        </mxCell>
        <mxCell id="0ETliMTYzgSCyh8lm8P4-4" style="edgeStyle=orthogonalEdgeStyle;rounded=0;orthogonalLoop=1;jettySize=auto;html=1;exitX=1;exitY=0.5;exitDx=0;exitDy=0;entryX=0;entryY=0.5;entryDx=0;entryDy=0;" parent="1" source="0ETliMTYzgSCyh8lm8P4-3" target="0ETliMTYzgSCyh8lm8P4-2" edge="1">
          <mxGeometry relative="1" as="geometry" />
        </mxCell>
        <mxCell id="0ETliMTYzgSCyh8lm8P4-23" style="edgeStyle=orthogonalEdgeStyle;rounded=0;orthogonalLoop=1;jettySize=auto;html=1;exitX=0;exitY=0.5;exitDx=0;exitDy=0;entryX=1;entryY=0.5;entryDx=0;entryDy=0;" parent="1" source="0ETliMTYzgSCyh8lm8P4-3" target="0ETliMTYzgSCyh8lm8P4-9" edge="1">
          <mxGeometry relative="1" as="geometry" />
        </mxCell>
        <mxCell id="0ETliMTYzgSCyh8lm8P4-24" style="edgeStyle=orthogonalEdgeStyle;rounded=0;orthogonalLoop=1;jettySize=auto;html=1;exitX=0;exitY=0.25;exitDx=0;exitDy=0;entryX=1;entryY=0.5;entryDx=0;entryDy=0;" parent="1" source="0ETliMTYzgSCyh8lm8P4-3" target="0ETliMTYzgSCyh8lm8P4-8" edge="1">
          <mxGeometry relative="1" as="geometry" />
        </mxCell>
        <mxCell id="0ETliMTYzgSCyh8lm8P4-25" style="edgeStyle=orthogonalEdgeStyle;rounded=0;orthogonalLoop=1;jettySize=auto;html=1;exitX=0;exitY=0;exitDx=0;exitDy=0;entryX=1;entryY=0.5;entryDx=0;entryDy=0;" parent="1" source="0ETliMTYzgSCyh8lm8P4-3" target="0ETliMTYzgSCyh8lm8P4-19" edge="1">
          <mxGeometry relative="1" as="geometry" />
        </mxCell>
        <mxCell id="0ETliMTYzgSCyh8lm8P4-26" style="edgeStyle=orthogonalEdgeStyle;rounded=0;orthogonalLoop=1;jettySize=auto;html=1;exitX=0;exitY=0.75;exitDx=0;exitDy=0;" parent="1" source="0ETliMTYzgSCyh8lm8P4-3" edge="1">
          <mxGeometry relative="1" as="geometry">
            <mxPoint x="188" y="320" as="targetPoint" />
          </mxGeometry>
        </mxCell>
        <mxCell id="0ETliMTYzgSCyh8lm8P4-27" style="edgeStyle=orthogonalEdgeStyle;rounded=0;orthogonalLoop=1;jettySize=auto;html=1;exitX=0;exitY=1;exitDx=0;exitDy=0;entryX=1;entryY=0.5;entryDx=0;entryDy=0;" parent="1" source="0ETliMTYzgSCyh8lm8P4-3" target="0ETliMTYzgSCyh8lm8P4-18" edge="1">
          <mxGeometry relative="1" as="geometry" />
        </mxCell>
        <mxCell id="0ETliMTYzgSCyh8lm8P4-3" value="Sistema Operacional" style="rounded=0;whiteSpace=wrap;html=1;" parent="1" vertex="1">
          <mxGeometry x="228" y="224" width="120" height="60" as="geometry" />
        </mxCell>
        <mxCell id="0ETliMTYzgSCyh8lm8P4-5" value="1:N" style="text;html=1;align=center;verticalAlign=middle;resizable=0;points=[];autosize=1;strokeColor=none;fillColor=none;" parent="1" vertex="1">
          <mxGeometry x="388" y="222" width="40" height="30" as="geometry" />
        </mxCell>
        <mxCell id="0ETliMTYzgSCyh8lm8P4-7" value="1:N" style="text;html=1;align=center;verticalAlign=middle;resizable=0;points=[];autosize=1;strokeColor=none;fillColor=none;" parent="1" vertex="1">
          <mxGeometry x="478" y="312" width="40" height="30" as="geometry" />
        </mxCell>
        <mxCell id="0ETliMTYzgSCyh8lm8P4-8" value="idSistemaOP" style="ellipse;whiteSpace=wrap;html=1;" parent="1" vertex="1">
          <mxGeometry x="88" y="170" width="90" height="50" as="geometry" />
        </mxCell>
        <mxCell id="0ETliMTYzgSCyh8lm8P4-9" value="idModeloCel" style="ellipse;whiteSpace=wrap;html=1;" parent="1" vertex="1">
          <mxGeometry x="88" y="230" width="90" height="50" as="geometry" />
        </mxCell>
        <mxCell id="0ETliMTYzgSCyh8lm8P4-10" value="Nome" style="ellipse;whiteSpace=wrap;html=1;" parent="1" vertex="1">
          <mxGeometry x="88" y="288" width="90" height="50" as="geometry" />
        </mxCell>
        <mxCell id="0ETliMTYzgSCyh8lm8P4-11" value="idSistemaOP" style="ellipse;whiteSpace=wrap;html=1;" parent="1" vertex="1">
          <mxGeometry x="628" y="100" width="90" height="50" as="geometry" />
        </mxCell>
        <mxCell id="0ETliMTYzgSCyh8lm8P4-12" value="idModeloCel" style="ellipse;whiteSpace=wrap;html=1;" parent="1" vertex="1">
          <mxGeometry x="648" y="160" width="90" height="48" as="geometry" />
        </mxCell>
        <mxCell id="0ETliMTYzgSCyh8lm8P4-13" value="idMarca" style="ellipse;whiteSpace=wrap;html=1;" parent="1" vertex="1">
          <mxGeometry x="648" y="220" width="90" height="50" as="geometry" />
        </mxCell>
        <mxCell id="0ETliMTYzgSCyh8lm8P4-14" value="Nome" style="ellipse;whiteSpace=wrap;html=1;" parent="1" vertex="1">
          <mxGeometry x="648" y="280" width="90" height="50" as="geometry" />
        </mxCell>
        <mxCell id="0ETliMTYzgSCyh8lm8P4-15" value="IdMarca" style="ellipse;whiteSpace=wrap;html=1;" parent="1" vertex="1">
          <mxGeometry x="273" y="490" width="90" height="50" as="geometry" />
        </mxCell>
        <mxCell id="0ETliMTYzgSCyh8lm8P4-16" value="idModeloCel" style="ellipse;whiteSpace=wrap;html=1;" parent="1" vertex="1">
          <mxGeometry x="373" y="490" width="90" height="50" as="geometry" />
        </mxCell>
        <mxCell id="0ETliMTYzgSCyh8lm8P4-17" value="Nome" style="ellipse;whiteSpace=wrap;html=1;" parent="1" vertex="1">
          <mxGeometry x="473" y="490" width="90" height="50" as="geometry" />
        </mxCell>
        <mxCell id="0ETliMTYzgSCyh8lm8P4-18" value="Fabricante" style="ellipse;whiteSpace=wrap;html=1;" parent="1" vertex="1">
          <mxGeometry x="88" y="350" width="90" height="50" as="geometry" />
        </mxCell>
        <mxCell id="0ETliMTYzgSCyh8lm8P4-19" value="VersÃ£o" style="ellipse;whiteSpace=wrap;html=1;" parent="1" vertex="1">
          <mxGeometry x="88" y="110" width="90" height="50" as="geometry" />
        </mxCell>
        <mxCell id="0ETliMTYzgSCyh8lm8P4-20" value="Armazenamento" style="ellipse;whiteSpace=wrap;html=1;" parent="1" vertex="1">
          <mxGeometry x="648" y="342" width="90" height="50" as="geometry" />
        </mxCell>
        <mxCell id="0ETliMTYzgSCyh8lm8P4-21" value="Memoria RAM" style="ellipse;whiteSpace=wrap;html=1;" parent="1" vertex="1">
          <mxGeometry x="523" y="80" width="90" height="50" as="geometry" />
        </mxCell>
        <mxCell id="0ETliMTYzgSCyh8lm8P4-22" value="Processador" style="ellipse;whiteSpace=wrap;html=1;" parent="1" vertex="1">
          <mxGeometry x="648" y="400" width="90" height="50" as="geometry" />
        </mxCell>
        <mxCell id="p3edAi-IUr60Wn8KT2bz-1" value="&lt;h1&gt;Problema 9&lt;/h1&gt;" style="text;html=1;align=center;verticalAlign=middle;resizable=0;points=[];autosize=1;strokeColor=none;fillColor=none;" vertex="1" parent="1">
          <mxGeometry x="338" y="20" width="150" height="70" as="geometry" />
        </mxCell>
      </root>
    </mxGraphModel>
  </diagram>
</mxfile>
